arm26_states
nRows=22
nColumns=17

# SIMM Motion File Header:
name arm26_states
datacolumns 17
datarows 22
otherdata 1
range 0.60030974999999664000 0.68943870999999579000
endheader
time	r_shoulder_elev	r_elbow_flex	r_shoulder_elev_u	r_elbow_flex_u	TRIlong.activation	TRIlong.fiber_length	TRIlat.activation	TRIlat.fiber_length	TRImed.activation	TRImed.fiber_length	BIClong.activation	BIClong.fiber_length	BICshort.activation	BICshort.fiber_length	BRA.activation	BRA.fiber_length
      0.60030974999999664000	    -12.55759393559307700000	     77.46237879901670500000	    -10.89620448065781500000	     18.87949498001208700000	      0.01000957199585682800	      0.15783330867264631000	      0.06513253906245011800	      0.09944527071999208200	      0.06513253906245011800	      0.09446401146303640100	      0.14987537062782036000	      0.11234920493127420000	      0.01168104005685365900	      0.11100934812846024000	      0.01013890744078207000	      0.07341455578396234600
      0.60555262999999659000	    -12.61555966716726300000	     77.55871289383284800000	    -11.21282345542364200000	     17.87282731805884600000	      0.01000944392587815700	      0.15783155540785657000	      0.06668116352299631500	      0.09946865817751250600	      0.06668116352299631500	      0.09448790619259024600	      0.15049299668807090000	      0.11227812940507487000	      0.01156975215635848100	      0.11095021164140854000	      0.01013360277859717300	      0.07337926596604051100
      0.60817406999999657000	    -12.64515216514573100000	     77.60491636103999700000	    -11.36362327637500000000	     17.37855134610647300000	      0.01000937636991501000	      0.15782940558126013000	      0.06745917060983620800	      0.09947972897374107700	      0.06745917060983620800	      0.09449922907119447100	      0.15080048108361491000	      0.11224443680894150000	      0.01151302040699720400	      0.11092248048173339000	      0.01013046902371674700	      0.07336232206198151100
      0.61079550999999654000	    -12.67513335025174500000	     77.64983122690317400000	    -11.50934055848657400000	     16.88968319082993800000	      0.01000930597810285200	      0.15782673790422294000	      0.06823902053085113800	      0.09949039313945440300	      0.06823902053085113800	      0.09451014444661363900	      0.15110559240173177000	      0.11221196009382377000	      0.01145553287129337700	      0.11089595640185207000	      0.01012705042721482300	      0.07334584159019474900
      0.61603838999999649000	    -12.73620708297221400000	     77.73585092363622100000	    -11.78484589351921100000	     15.92766814531496100000	      0.01000915496821398400	      0.15781950012500912000	      0.06980302573544260000	      0.09951052767418176700	      0.06980302573544260000	      0.09453077884521236800	      0.15170526570680778000	      0.11215062427510702000	      0.01133815515296273900	      0.11084647794164210000	      0.01011946207201222000	      0.07331425016541437400
      0.62128126999999644000	    -12.79866757185262000000	     77.81687782094276400000	    -12.03816687165018500000	     14.98460089367324600000	      0.01000899779584364000	      0.15780982761831494000	      0.07137501581073099600	      0.09952910636285680600	      0.07137501581073099600	      0.09454985386304616500	      0.15228116627377056000	      0.11209405689176420000	      0.01122231219793900200	      0.11080162826245278000	      0.01011151985530463700	      0.07328444716347830300
      0.62652414999999639000	    -12.86239539871701600000	     77.89300374661080200000	    -12.26803713688936200000	     14.05768074122102200000	      0.01000884460762298400	      0.15779765445938967000	      0.07295863673978204800	      0.09954614704718631200	      0.07295863673978204800	      0.09456738729675434600	      0.15282291305712467000	      0.11204223608800269000	      0.01111483548900288900	      0.11076111661169034000	      0.01010410123118860700	      0.07325639458673111100
      0.63176702999999634000	    -12.92726401114052100000	     77.96430343129803500000	    -12.47325087783470300000	     13.14224816960179300000	      0.01000870204999116700	      0.15778366078031136000	      0.07456517346572821800	      0.09956164656967025900	      0.07456517346572821800	      0.09458337658005439000	      0.15332767478713091000	      0.11199511354084583000	      0.01102246091341806500	      0.11072464760320332000	      0.01009772805824970400	      0.07323006123461718600
      0.63438846999999632000	    -12.96008482469942900000	     77.99815941406690500000	    -12.56593684550876400000	     12.68804416177153100000	      0.01000863488074778600	      0.15777541563061548000	      0.07537502387537178800	      0.09956881487295769800	      0.07537502387537178800	      0.09459078917660450300	      0.15356877443220551000	      0.11197329379876508000	      0.01098198439589710300	      0.11070784027631417000	      0.01009494270405729600	      0.07321753122105428800
      0.63700990999999629000	    -12.99313988636371400000	     78.03082611471532500000	    -12.65193590359527000000	     12.23484858184005500000	      0.01000856662422340600	      0.15776687280360963000	      0.07618016629894511200	      0.09957560958746841700	      0.07618016629894511200	      0.09459782781767026000	      0.15380319504613915000	      0.11195261846257504000	      0.01094140229738170000	      0.11069199015985479000	      0.01009215355274033600	      0.07320542582265655900
      0.64225278999999624000	    -13.05988124858119900000	     78.09260133601262100000	    -12.80324329406568900000	     11.33107174137074900000	      0.01000842442217609100	      0.15774826559289240000	      0.07777520525508704900	      0.09958814683907935000	      0.07777520525508704900	      0.09461085025092268200	      0.15425705909071727000	      0.11191464573326343000	      0.01085723630824300900	      0.11066330740688229000	      0.01008637753315531700	      0.07318248976001207100
      0.64749566999999619000	    -13.12734276826261300000	     78.14964541757102300000	    -12.92662253005608600000	     10.42987978672139900000	      0.01000828174441378000	      0.15772772575178937000	      0.07936889373982569700	      0.09959930617234727400	      0.07936889373982569700	      0.09462248808107032200	      0.15467620671973495000	      0.11188110681931752000	      0.01077821071582686600	      0.11063866033455781000	      0.01008089407127326500	      0.07316124595788119100
      0.65273854999999614000	    -13.19537692915090300000	     78.20196869819166400000	    -13.02152589795901600000	      9.53016769612149160000	      0.01000811715681612600	      0.15770509822442502000	      0.08096743565494735100	      0.09960905465840756700	      0.08096743565494735100	      0.09463270735035135600	      0.15506144580251652000	      0.11185196765409032000	      0.01070862706492205600	      0.11061784009827422000	      0.01007592256953650400	      0.07314169043225630900
      0.65535998999999612000	    -13.22956174649373700000	     78.22636143886319400000	    -13.05820471942180900000	      9.07998906151363090000	      0.01000797827018960900	      0.15769328984667697000	      0.08176714065996809600	      0.09961339635568330900	      0.08176714065996809600	      0.09463728165230748900	      0.15524171348898005000	      0.11183902984877511000	      0.01067657977168102800	      0.11060883368081686000	      0.01007349786791436400	      0.07313254571931950000
      0.65798142999999609000	    -13.26383310819835200000	     78.24957382475369600000	    -13.08754726539453600000	      8.62958432370981580000	      0.01000779812855807600	      0.15768093753224016000	      0.08256695335073074800	      0.09961738298014118100	      0.08256695335073074800	      0.09464149904411267600	      0.15541568221482266000	      0.11182716826238834000	      0.01064615001530537000	      0.11060075756805911000	      0.01007109533996525600	      0.07312382437250425400
      0.66322430999999604000	    -13.33255832748457500000	     78.29245291125057800000	    -13.12411359035341900000	      7.72707065835908140000	      0.01000749541935577600	      0.15765493869970590000	      0.08417361301168083100	      0.09962428154656478900	      0.08417361301168083100	      0.09464885371256082100	      0.15574436891818644000	      0.11180663196032964000	      0.01059138326083666800	      0.11058737153732151000	      0.01006700549162115400	      0.07310765098309517100
      0.66846718999999599000	    -13.40139725752170500000	     78.33059177789924400000	    -13.13086533400292800000	      6.82108530862470270000	      0.01000739753679734900	      0.15762732857793774000	      0.08579065674869904000	      0.09962971907743994900	      0.08579065674869904000	      0.09465474091260119000	      0.15605198986118998000	      0.11179028301137779000	      0.01054460701179509000	      0.11057761202512828000	      0.01006418274425631200	      0.07309316852221280100
      0.67371006999999594000	    -13.47019274734819800000	     78.36396939590756000000	    -13.10749339701302700000	      5.91082266650223080000	      0.01000734785987681700	      0.15759810304981536000	      0.08740535618215367100	      0.09963370015336205100	      0.08740535618215367100	      0.09465916586538424000	      0.15634910118270667000	      0.11177802474351550000	      0.01049811788599502900	      0.11057153740114926000	      0.01006098876901764600	      0.07308039427848160600
      0.67895294999999589000	    -13.53878680472510400000	     78.39256367644769300000	    -13.05413365843952700000	      4.99612178126949670000	      0.01000729031052786600	      0.15756769688586236000	      0.08902711313368803800	      0.09963623300470869600	      0.08902711313368803800	      0.09466213633641759600	      0.15663957296944761000	      0.11176975663896770000	      0.01045232673634401100	      0.11056925134865517000	      0.01005741209181457800	      0.07306934596096977000
      0.68157438999999587000	    -13.57295926672309200000	     78.40506014836340400000	    -13.01614383151898100000	      4.53778128658983260000	      0.01000725239120984400	      0.15755170211522049000	      0.08984859073596838900	      0.09963693459695742400	      0.08984859073596838900	      0.09466305441003369800	      0.15678239980679948000	      0.11176709330550597000	      0.01043196041185490000	      0.11056941745452160000	      0.01005586531895715800	      0.07306446829649689000
      0.68419582999999584000	    -13.60702243466257900000	     78.41635396769237300000	    -12.97075472851177300000	      4.07864035358278350000	      0.01000720911001918300	      0.15753552793555525000	      0.09067575921089984800	      0.09963725094809484900	      0.09067575921089984800	      0.09466358607726735300	      0.15692440648471129000	      0.11176539818026918000	      0.01041319017693844900	      0.11057027715128181000	      0.01005447528860609200	      0.07306002312879252000
      0.68943870999999579000	    -13.67474265487151000000	     78.43532600524342500000	    -12.85731614770483600000	      3.15782912189462910000	      0.01000712245094330000	      0.15750223823574402000	      0.09235480632378492700	      0.09963633648659250800	      0.09235480632378492700	      0.09466329452515756500	      0.15721614329780495000	      0.11176472252612846000	      0.01037904230300014000	      0.11057429625654423000	      0.01005199425283115000	      0.07305243314785574100
